<?xml version="1.0" encoding="utf-8"?>
<!-- Generator: Adobe Illustrator 28.1.0, SVG Export Plug-In . SVG Version: 6.00 Build 0)  -->
<svg version="1.1" id="Calque_1" xmlns="http://www.w3.org/2000/svg" xmlns:xlink="http://www.w3.org/1999/xlink" x="0px" y="0px"
	 viewBox="0 0 592.5 42.6" style="enable-background:new 0 0 592.5 42.6;" xml:space="preserve">
<style type="text/css">
	.st0{fill:#2EAE7A;}
	.st1{fill:#FFFFFF;}
	.st2{fill:#202B43;}
	.st3{fill:#015229;}
</style>
<g id="Trustpilot_ratings_5star-RGB">
	<g>
		<g>
			<rect id="Rectangle-path" x="184.1" class="st0" width="42" height="42"/>
			<rect id="Rectangle-path_00000072984684785520921030000003164881075965278363_" x="229.7" class="st0" width="42" height="42"/>
			<rect id="Rectangle-path_00000127752091301372553480000018235798113546756249_" x="275.2" class="st0" width="42" height="42"/>
			<rect id="Rectangle-path_00000156578509582889648340000009192475507756821632_" x="320.8" class="st0" width="42" height="42"/>
			<rect id="Rectangle-path_00000029011718321886582510000011757098519007373493_" x="366.3" class="st0" width="42" height="42"/>
			<path id="Shape" class="st1" d="M205.1,28.3l6.4-1.6l2.7,8.2L205.1,28.3z M219.9,17.7h-11.3l-3.5-10.6l-3.5,10.6h-11.3l9.1,6.6
				l-3.5,10.6l9.1-6.6l5.6-4L219.9,17.7L219.9,17.7L219.9,17.7L219.9,17.7z"/>
			<path id="Shape_00000166648870432251712820000000828456423478299814_" class="st1" d="M250.7,28.3l6.4-1.6l2.7,8.2L250.7,28.3z
				 M265.4,17.7h-11.3l-3.5-10.6l-3.5,10.6H236l9.1,6.6l-3.5,10.6l9.1-6.6l5.6-4L265.4,17.7L265.4,17.7L265.4,17.7L265.4,17.7z"/>
			<path id="Shape_00000021823648955614676460000005477058584980748432_" class="st1" d="M296.2,28.3l6.4-1.6l2.7,8.2L296.2,28.3z
				 M311,17.7h-11.3l-3.5-10.6l-3.5,10.6h-11.3l9.1,6.6L287,34.9l9.1-6.6l5.6-4L311,17.7L311,17.7L311,17.7L311,17.7z"/>
			<path id="Shape_00000171681717320328601350000015330414550481780609_" class="st1" d="M341.8,28.3l6.4-1.6l2.7,8.2L341.8,28.3z
				 M356.5,17.7h-11.3l-3.5-10.6l-3.5,10.6h-11.3l9.1,6.6l-3.5,10.6l9.1-6.6l5.6-4L356.5,17.7L356.5,17.7L356.5,17.7L356.5,17.7z"/>
			<path id="Shape_00000013169907627268543730000004049523509653857973_" class="st1" d="M387.3,28.3l6.4-1.6l2.7,8.2L387.3,28.3z
				 M402.1,17.7h-11.3l-3.5-10.6l-3.5,10.6h-11.3l9.1,6.6l-3.5,10.6l9.1-6.6l5.6-4L402.1,17.7L402.1,17.7L402.1,17.7L402.1,17.7z"/>
		</g>
	</g>
</g>
<g>
	<g id="Type">
		<g>
			<path class="st2" d="M466.2,15.6h16.1v3H476v16.9h-3.5V18.6h-6.3L466.2,15.6L466.2,15.6z M481.6,21.1h3v2.8h0.1
				c0.1-0.4,0.3-0.8,0.5-1.1c0.3-0.4,0.6-0.7,1-1s0.8-0.5,1.3-0.7s0.9-0.3,1.4-0.3c0.4,0,0.6,0,0.8,0s0.3,0,0.4,0.1V24
				c-0.2,0-0.4-0.1-0.7-0.1c-0.2,0-0.5,0-0.7,0c-0.5,0-1,0.1-1.5,0.3s-0.9,0.5-1.2,0.9c-0.4,0.4-0.6,0.9-0.8,1.5s-0.3,1.3-0.3,2.1
				v6.8h-3.2L481.6,21.1L481.6,21.1z M504.6,35.5h-3.1v-2h-0.1c-0.4,0.7-1,1.3-1.7,1.7c-0.8,0.4-1.6,0.7-2.4,0.7
				c-1.9,0-3.3-0.5-4.1-1.4c-0.8-0.9-1.3-2.4-1.3-4.3v-9.1h3.2v8.8c0,1.3,0.2,2.2,0.7,2.7s1.2,0.8,2,0.8c0.7,0,1.2-0.1,1.7-0.3
				c0.4-0.2,0.8-0.5,1.1-0.8c0.3-0.3,0.5-0.8,0.6-1.2c0.1-0.5,0.2-1,0.2-1.6v-8.3h3.2L504.6,35.5L504.6,35.5z M510,30.9
				c0.1,0.9,0.4,1.6,1.1,2c0.6,0.4,1.3,0.6,2.2,0.6c0.3,0,0.6,0,1-0.1c0.4,0,0.7-0.1,1.1-0.3c0.3-0.1,0.6-0.3,0.8-0.6s0.3-0.6,0.3-1
				s-0.2-0.7-0.4-1c-0.3-0.3-0.6-0.5-1.1-0.6c-0.4-0.2-0.9-0.3-1.5-0.4s-1.1-0.2-1.7-0.4c-0.6-0.1-1.2-0.3-1.7-0.5s-1-0.4-1.5-0.8
				c-0.4-0.3-0.8-0.7-1-1.2c-0.3-0.5-0.4-1.1-0.4-1.8c0-0.8,0.2-1.4,0.6-2s0.9-1,1.4-1.3c0.6-0.3,1.2-0.5,2-0.7
				c0.7-0.1,1.4-0.2,2-0.2c0.7,0,1.5,0.1,2.1,0.2c0.7,0.2,1.3,0.4,1.8,0.8s1,0.8,1.4,1.4s0.6,1.2,0.7,2h-3.3c-0.2-0.8-0.5-1.3-1-1.5
				c-0.5-0.3-1.2-0.4-1.9-0.4c-0.2,0-0.5,0-0.8,0.1c-0.3,0-0.6,0.1-0.9,0.2s-0.5,0.3-0.7,0.4c-0.2,0.2-0.3,0.4-0.3,0.8
				s0.1,0.7,0.4,0.9c0.3,0.2,0.6,0.4,1.1,0.6c0.4,0.2,0.9,0.3,1.5,0.4s1.1,0.2,1.7,0.4c0.6,0.1,1.1,0.3,1.7,0.5
				c0.6,0.2,1.1,0.4,1.5,0.8c0.4,0.3,0.8,0.7,1.1,1.2s0.4,1.1,0.4,1.8c0,0.9-0.2,1.6-0.6,2.2c-0.4,0.6-0.9,1.1-1.5,1.4
				c-0.6,0.4-1.3,0.6-2.1,0.8s-1.5,0.3-2.3,0.3c-0.9,0-1.8-0.1-2.5-0.3c-0.8-0.2-1.4-0.5-2-0.9s-1-0.9-1.3-1.6
				c-0.3-0.6-0.5-1.4-0.5-2.2L510,30.9L510,30.9z M520.5,21.1h2.4v-4.3h3.2v4.3h2.9v2.4h-3v7.7c0,0.3,0,0.6,0,0.9
				c0,0.2,0.1,0.4,0.2,0.6c0.1,0.2,0.3,0.3,0.5,0.4c0.2,0.1,0.5,0.1,0.8,0.1c0.2,0,0.4,0,0.7,0c0.2,0,0.4,0,0.7-0.1v2.5
				c-0.4,0-0.7,0.1-1,0.1s-0.7,0.1-1,0.1c-0.8,0-1.5-0.1-2-0.2c-0.5-0.2-0.9-0.4-1.2-0.7s-0.5-0.7-0.6-1.2s-0.2-1-0.2-1.6v-8.5h-2.4
				V21.1L520.5,21.1z M531.1,21.1h3v2h0.1c0.4-0.8,1.1-1.4,1.9-1.8c0.8-0.4,1.7-0.5,2.6-0.5c1.1,0,2.1,0.2,3,0.6
				c0.8,0.4,1.5,0.9,2.1,1.6s1,1.5,1.2,2.4c0.3,0.9,0.4,1.9,0.4,3c0,1-0.1,1.9-0.4,2.8c-0.3,0.9-0.6,1.7-1.1,2.4s-1.2,1.2-1.9,1.7
				c-0.8,0.4-1.7,0.6-2.8,0.6c-0.5,0-0.9,0-1.4-0.1s-0.9-0.2-1.3-0.4c-0.4-0.2-0.8-0.4-1.2-0.7s-0.7-0.6-0.9-1h-0.1v7.2h-3.2
				L531.1,21.1L531.1,21.1z M542.2,28.3c0-0.6-0.1-1.3-0.3-1.9s-0.4-1.2-0.8-1.6c-0.3-0.5-0.8-0.9-1.2-1.1c-0.5-0.3-1.1-0.4-1.7-0.4
				c-1.3,0-2.3,0.5-3,1.4s-1,2.2-1,3.7c0,0.7,0.1,1.4,0.3,2s0.4,1.2,0.8,1.6c0.4,0.4,0.8,0.8,1.3,1.1s1.1,0.4,1.7,0.4
				c0.7,0,1.3-0.2,1.8-0.4c0.5-0.3,0.9-0.7,1.2-1.2s0.6-1,0.7-1.6C542.1,29.6,542.2,29,542.2,28.3z M547.8,15.6h3.2v3h-3.2V15.6z
				 M547.8,21.1h3.2v14.4h-3.2V21.1z M553.8,15.6h3.2v19.9h-3.2V15.6z M566.7,35.9c-1.2,0-2.2-0.2-3.1-0.6c-0.9-0.4-1.7-0.9-2.3-1.6
				c-0.6-0.7-1.1-1.5-1.4-2.4c-0.3-0.9-0.5-2-0.5-3.1s0.2-2.1,0.5-3s0.8-1.7,1.4-2.4s1.4-1.2,2.3-1.6c0.9-0.4,1.9-0.6,3.1-0.6
				s2.2,0.2,3.1,0.6c0.9,0.4,1.7,0.9,2.3,1.6s1.1,1.5,1.4,2.4c0.3,0.9,0.5,1.9,0.5,3s-0.2,2.1-0.5,3.1c-0.3,0.9-0.8,1.7-1.4,2.4
				c-0.6,0.7-1.4,1.2-2.3,1.6S567.9,35.9,566.7,35.9z M566.7,33.4c0.7,0,1.3-0.2,1.8-0.4c0.5-0.3,0.9-0.7,1.3-1.2
				c0.3-0.5,0.6-1,0.7-1.6c0.2-0.6,0.2-1.2,0.2-1.9c0-0.6-0.1-1.2-0.2-1.8c-0.2-0.6-0.4-1.2-0.7-1.6c-0.3-0.5-0.8-0.9-1.3-1.2
				c-0.5-0.3-1.1-0.4-1.8-0.4s-1.3,0.2-1.8,0.4c-0.5,0.3-0.9,0.7-1.3,1.2c-0.3,0.5-0.6,1-0.7,1.6c-0.2,0.6-0.2,1.2-0.2,1.8
				c0,0.6,0.1,1.2,0.2,1.9c0.2,0.6,0.4,1.2,0.7,1.6c0.3,0.5,0.8,0.9,1.3,1.2C565.4,33.2,566,33.4,566.7,33.4z M574.9,21.1h2.4v-4.3
				h3.2v4.3h2.9v2.4h-2.9v7.7c0,0.3,0,0.6,0,0.9c0,0.2,0.1,0.4,0.2,0.6c0.1,0.2,0.3,0.3,0.5,0.4c0.2,0.1,0.5,0.1,0.8,0.1
				c0.2,0,0.4,0,0.7,0s0.4,0,0.7-0.1v2.5c-0.4,0-0.7,0.1-1,0.1s-0.7,0.1-1,0.1c-0.8,0-1.5-0.1-2-0.2c-0.5-0.2-0.9-0.4-1.2-0.7
				s-0.5-0.7-0.6-1.2s-0.2-1-0.2-1.6v-8.5H575L574.9,21.1L574.9,21.1z"/>
		</g>
	</g>
	<g id="Star">
		<polygon class="st0" points="462.5,15.6 447.9,15.6 443.4,1.8 438.9,15.6 424.4,15.6 436.2,24.2 431.7,38 443.4,29.4 455.2,38 
			450.7,24.2 462.5,15.6 		"/>
		<polygon class="st3" points="451.7,27.3 450.7,24.2 443.4,29.4 		"/>
	</g>
</g>
<g>
	<path class="st2" d="M30.3,23.7H16.8v9.2h14.9l-0.5,3.5H12.8V8.9H31v3.5H16.8v7.9h13.6v3.4H30.3z"/>
	<path class="st2" d="M38.8,16.2c2.7,4.3,3.8,6.2,4.5,7.3l0,0c0.8-1.3,2.4-3.8,4.7-7.3h4.3l-6.8,9.7l6.8,10.5h-4.5
		c-2.3-3.8-3.9-6.4-4.7-7.7l0,0c-0.6,1.1-2.2,3.8-4.7,7.7h-4.3l6.7-10l-6.5-10.1h4.5V16.2z"/>
	<path class="st2" d="M71.1,30.1c-0.8,3.4-3.2,6.7-8.5,6.7c-5.7,0-9.1-4.1-9.1-10.4c0-5.7,3.3-10.7,9.3-10.7s8,4.3,8.2,6.8h-3.8
		c-0.5-2-1.7-3.6-4.4-3.6c-3.4,0-5.3,2.9-5.3,7.3c0,4.5,1.9,7.4,5.2,7.4c2.4,0,3.8-1.3,4.5-3.5C67.2,30.1,71.1,30.1,71.1,30.1z"/>
	<path class="st2" d="M77.9,27c0,3.8,1.9,6.6,5.2,6.6c3,0,4-1.5,4.6-2.9h3.9c-0.8,2.6-2.9,6.1-8.6,6.1c-6.4,0-9-5.1-9-10.3
		c0-6,3.1-10.8,9.2-10.8c6.6,0,8.7,5.2,8.7,9.6c0,0.6,0,1.1-0.1,1.7H77.9z M88,24.4c0-3.1-1.6-5.7-4.9-5.7c-3.4,0-4.8,2.3-5.2,5.7
		C77.9,24.4,88,24.4,88,24.4z"/>
	<path class="st2" d="M96.3,36.3v-29h3.9v29H96.3z"/>
	<path class="st2" d="M106,36.3v-29h3.9v29H106z"/>
	<path class="st2" d="M118.2,27c0,3.8,1.9,6.6,5.2,6.6c3,0,4-1.5,4.6-2.9h3.9c-0.8,2.6-2.9,6.1-8.6,6.1c-6.4,0-9-5.1-9-10.3
		c0-6,3.1-10.8,9.2-10.8c6.6,0,8.7,5.2,8.7,9.6c0,0.6,0,1.1-0.1,1.7H118.2z M128.3,24.4c0-3.1-1.6-5.7-4.9-5.7
		c-3.4,0-4.8,2.3-5.2,5.7C118.2,24.4,128.3,24.4,128.3,24.4z"/>
	<path class="st2" d="M136.6,21.3c0-1.7,0-3.5,0-5.1h3.8c0.1,0.6,0.2,2.6,0.2,3.2c0.8-1.6,2.4-3.6,6.2-3.6s6.7,2.4,6.7,7.7v12.9
		h-3.9V23.9c0-2.9-1.1-4.9-4.1-4.9c-3.5,0-5,2.6-5,6.5v10.8h-3.9V21.3z"/>
	<path class="st2" d="M156.4,16.2h3.4v-5.8h3.9v5.8h4.3v3.1h-4.3v11.4c0,1.9,0.5,2.8,2.3,2.8c0.4,0,1.1,0,1.7-0.1v2.9
		c-0.9,0.3-2.2,0.4-3.2,0.4c-3.3,0-4.7-1.7-4.7-5.1V19.3h-3.4V16.2z"/>
</g>
</svg>
